# xmcd CD database file
#
# Track frame offsets:
#	150
#	20424
#	25376
#	52053
#	70547
#	90537
#	109519
#	130322
#	163573
#	184652
#	185257
#	185630
#	188189
#	197380
#	198503
#	200387
#	201454
#	203562
#	206883
#	214891
#	215796
#	217214
#	220826
#	227329
#	228244
#	235871
#	236340
#	239150
#	240159
#	245097
#	245399
#	248568
#	249044
#	253075
#	254001
#	257875
#	260276
#	263285
#	264906
#
# Disc length: 3536 seconds
#
# Revision: 1
# Processed by: cddbd v1.4PL0 Copyright (c) Steve Scherf et al.
# Submitted via: jetAudio 5
#
DISCID=3c0dce27
DTITLE=Chip Taylor - Black and Blue America (The Single)
DYEAR=1900
DGENRE=
TTITLE0=Black and Blue America (Radio Edit)
TTITLE1=Black and Blue America Introduction
TTITLE2=Black and Blue America (Long Version)
TTITLE3=The Way Of It
TTITLE4=Dance With Jesus (Live at KNBT)
TTITLE5=Ft. Worth Thursday Night
TTITLE6=The Ship
TTITLE7=Temptation Dub Mix
TTITLE8=Temptation Dub Mix (Radio Edit)
TTITLE9=Introduction of Chip.  What is the title of your new album?
TTITLE10=Answer
TTITLE11=Tell us about why you left music and what influenced you to re
TTITLE11=turn
TTITLE12=Answer
TTITLE13=How did music become a part of your life in your early years?
TTITLE14=Answer
TTITLE15=You where from New York yet your first success was with countr
TTITLE15=y music, how did that happen?
TTITLE16=Answer
TTITLE17=Tell us about your 1973 classic album Last Chance came about
TTITLE18=Answer
TTITLE19=How does it feel to be back playing for fans?
TTITLE20=Answer
TTITLE21=There are many spoken word voices on your new album, tell us a
TTITLE21=bout that
TTITLE22=Answer
TTITLE23=Tell us about that strange - funny sound bite with the video t
TTITLE23=ape repair guys
TTITLE24=Answer
TTITLE25=You have some great people playing on the album, tell us about
TTITLE25=them
TTITLE26=Answer
TTITLE27=Tell us about your new single, Temptation, and your singing pa
TTITLE27=rtner on that song, PP Arnold
TTITLE28=Answer
TTITLE29=How did you happen to write the wonderful song Could I Love Wi
TTITLE29=th This?
TTITLE30=Answer
TTITLE31=What are your upcoming tour plans?
TTITLE32=Answer
TTITLE33=You are quite a storyteller, tell us about your father's influ
TTITLE33=ence regarding that
TTITLE34=Answer
TTITLE35=How did Shaggy happen to record Angel of the Morning?
TTITLE36=Answer
TTITLE37=Good luck, Chip
TTITLE38=Answer
EXTD=Includes Bonus Tracks and Interview
EXTT0=
EXTT1=
EXTT2=
EXTT3=featuring duet with vocal John Prine
EXTT4=
EXTT5=
EXTT6=featuring duet vocal by Lucinda Williams
EXTT7=
EXTT8=Featuring vocals by P.P. Arnold and appearances by John F. Kenned
EXTT8=y, Dwight Eisenhower, martin Luther King, Jr. and Jon Voight as t
EXTT8=he DJ
EXTT9=
EXTT10=
EXTT11=
EXTT12=
EXTT13=
EXTT14=
EXTT15=
EXTT16=
EXTT17=
EXTT18=
EXTT19=
EXTT20=
EXTT21=
EXTT22=
EXTT23=
EXTT24=
EXTT25=
EXTT26=
EXTT27=
EXTT28=
EXTT29=
EXTT30=
EXTT31=
EXTT32=
EXTT33=
EXTT34=
EXTT35=
EXTT36=
EXTT37=
EXTT38=
PLAYORDER=
